<svg id="eJ8DURhqKb21" xmlns="http://www.w3.org/2000/svg" xmlns:xlink="http://www.w3.org/1999/xlink"
  viewBox="0 0 300 300" shape-rendering="geometricPrecision" text-rendering="geometricPrecision">
  <g transform="translate(16.777724 15.25509)">
    <g transform="translate(.115461 0.115463)">
      <line x1="0" y1="-12.106695" x2="0" y2="12.106696"
        transform="matrix(1 0 0 1.119319 37.096774 75.40554)" fill="none" stroke="#fff"
        stroke-width="3" />
      <line x1="0" y1="-12.106695" x2="0" y2="12.106696"
        transform="matrix(1 0 0 1.119319 61.205013 74.58832)" fill="none" stroke="#fff"
        stroke-width="3" />
      <line x1="0" y1="-12.106695" x2="0" y2="12.106696"
        transform="matrix(0 1-1.119319 0 49.110034 62.493332)" fill="none" stroke="#fff"
        stroke-width="3" />
      <line x1="0" y1="-12.106695" x2="0" y2="12.106696"
        transform="matrix(0 1-1.119319 0 49.110034 87.520154)" fill="none" stroke="#fff"
        stroke-width="3" />
    </g>
    <g transform="matrix(1.77335 0 0 1.728232-37.863785-54.499702)">
      <line x1="0" y1="-12.106695" x2="0" y2="12.106696"
        transform="matrix(1 0 0 1.119319 37.096774 75.40554)" fill="none" stroke="#fff"
        stroke-width="3" />
      <line x1="0" y1="-12.106695" x2="0" y2="12.106696"
        transform="matrix(1 0 0 1.119319 37.040139 75.40554)" fill="none" stroke="#fff"
        stroke-width="3" />
      <line x1="0" y1="-12.106695" x2="0" y2="12.106696"
        transform="matrix(1 0 0 1.119319 61.205014 75.40554)" fill="none" stroke="#fff"
        stroke-width="3" />
      <line x1="0" y1="-12.106695" x2="0" y2="12.106696"
        transform="matrix(0 1-1.119319 0 49.110034 62.493332)" fill="none" stroke="#fff"
        stroke-width="3" />
      <line x1="0" y1="-12.106695" x2="0" y2="12.106696"
        transform="matrix(0 1-1.119319 0 49.110034 87.516591)" fill="none" stroke="#fff"
        stroke-width="3" />
    </g>
    <line x1="0" y1="-22.315293" x2="0" y2="20.930704" transform="translate(66.776749 75.396078)"
      fill="none" stroke="#fff" stroke-width="3" />
    <line x1="0" y1="-22.315293" x2="0" y2="20.930704" transform="translate(62.776749 75.396078)"
      fill="none" stroke="#fff" stroke-width="3" />
    <line x1="0" y1="-22.315293" x2="0" y2="20.930704" transform="translate(31.67424 76.510861)"
      fill="none" stroke="#fff" stroke-width="3" />
    <line x1="0" y1="-22.315293" x2="0" y2="20.930704" transform="translate(33.67424 76.510861)"
      fill="none" stroke="#fff" stroke-width="3" />
    <line x1="0" y1="-22.315293" x2="0" y2="20.930704" transform="translate(35.67424 76.510861)"
      fill="none" stroke="#fff" stroke-width="3" />
    <line x1="0" y1="-22.315293" x2="0" y2="20.930704" transform="translate(64.776749 75.396078)"
      fill="none" stroke="#fff" stroke-width="3" />
    <line x1="-12.054119" y1="0" x2="12.054119" y2="0"
      transform="matrix(1.127591 0 0 1 49.266355 57.195568)" fill="none" stroke="#fff"
      stroke-width="3" />
    <line x1="-12.054119" y1="0" x2="12.054119" y2="0"
      transform="matrix(1.127591 0 0 1 49.266355 58.195568)" fill="none" stroke="#fff"
      stroke-width="3" />
    <line x1="-12.054119" y1="0" x2="12.054119" y2="0"
      transform="matrix(1.127591 0 0 1 49.266355 90.195568)" fill="none" stroke="#fff"
      stroke-width="3" />
    <line x1="-12.054119" y1="0" x2="12.054119" y2="0"
      transform="matrix(1.127591 0 0 1 49.266355 91.195568)" fill="none" stroke="#fff"
      stroke-width="3" />
    <line x1="-12.054119" y1="0" x2="12.054119" y2="0"
      transform="matrix(1.127591 0 0 1 49.266355 93.195568)" fill="none" stroke="#fff"
      stroke-width="3" />
    <line x1="-12.054119" y1="0" x2="12.054119" y2="0"
      transform="matrix(1.127591 0 0 1 49.266355 60.195568)" fill="none" stroke="#fff"
      stroke-width="3" />
  </g>
  <rect width="71.684768" height="22.434353" rx="0" ry="0"
    transform="matrix(2.555096 0 0 1 84.295986 78.741697)" fill="#fff" stroke-width="0" />
  <rect width="71.684768" height="22.434353" rx="0" ry="0"
    transform="matrix(2.555096 0 0 1 41.860719 188.125909)" fill="#fff" stroke-width="0" />
  <g transform="translate(194.200837 123.524519)">
    <g transform="translate(.115461 0.115463)">
      <line x1="0" y1="-12.106695" x2="0" y2="12.106696"
        transform="matrix(1 0 0 1.119319 37.096774 75.40554)" fill="none" stroke="#fff"
        stroke-width="3" />
      <line x1="0" y1="-12.106695" x2="0" y2="12.106696"
        transform="matrix(1 0 0 1.119319 61.205013 74.58832)" fill="none" stroke="#fff"
        stroke-width="3" />
      <line x1="0" y1="-12.106695" x2="0" y2="12.106696"
        transform="matrix(0 1-1.119319 0 49.110034 62.493332)" fill="none" stroke="#fff"
        stroke-width="3" />
      <line x1="0" y1="-12.106695" x2="0" y2="12.106696"
        transform="matrix(0 1-1.119319 0 49.110034 87.520154)" fill="none" stroke="#fff"
        stroke-width="3" />
    </g>
    <g transform="matrix(1.77335 0 0 1.728232-37.863785-54.499702)">
      <line x1="0" y1="-12.106695" x2="0" y2="12.106696"
        transform="matrix(1 0 0 1.119319 37.096774 75.40554)" fill="none" stroke="#fff"
        stroke-width="3" />
      <line x1="0" y1="-12.106695" x2="0" y2="12.106696"
        transform="matrix(1 0 0 1.119319 37.040139 75.40554)" fill="none" stroke="#fff"
        stroke-width="3" />
      <line x1="0" y1="-12.106695" x2="0" y2="12.106696"
        transform="matrix(1 0 0 1.119319 61.205014 75.40554)" fill="none" stroke="#fff"
        stroke-width="3" />
      <line x1="0" y1="-12.106695" x2="0" y2="12.106696"
        transform="matrix(0 1-1.119319 0 49.110034 62.493332)" fill="none" stroke="#fff"
        stroke-width="3" />
      <line x1="0" y1="-12.106695" x2="0" y2="12.106696"
        transform="matrix(0 1-1.119319 0 49.110034 87.516591)" fill="none" stroke="#fff"
        stroke-width="3" />
    </g>
    <line x1="0" y1="-22.315293" x2="0" y2="20.930704" transform="translate(66.776749 75.396078)"
      fill="none" stroke="#fff" stroke-width="3" />
    <line x1="0" y1="-22.315293" x2="0" y2="20.930704" transform="translate(62.776749 75.396078)"
      fill="none" stroke="#fff" stroke-width="3" />
    <line x1="0" y1="-22.315293" x2="0" y2="20.930704" transform="translate(31.67424 76.510861)"
      fill="none" stroke="#fff" stroke-width="3" />
    <line x1="0" y1="-22.315293" x2="0" y2="20.930704" transform="translate(33.67424 76.510861)"
      fill="none" stroke="#fff" stroke-width="3" />
    <line x1="0" y1="-22.315293" x2="0" y2="20.930704" transform="translate(35.67424 76.510861)"
      fill="none" stroke="#fff" stroke-width="3" />
    <line x1="0" y1="-22.315293" x2="0" y2="20.930704" transform="translate(64.776749 75.396078)"
      fill="none" stroke="#fff" stroke-width="3" />
    <line x1="-12.054119" y1="0" x2="12.054119" y2="0"
      transform="matrix(1.127591 0 0 1 49.266355 57.195568)" fill="none" stroke="#fff"
      stroke-width="3" />
    <line x1="-12.054119" y1="0" x2="12.054119" y2="0"
      transform="matrix(1.127591 0 0 1 49.266355 58.195568)" fill="none" stroke="#fff"
      stroke-width="3" />
    <line x1="-12.054119" y1="0" x2="12.054119" y2="0"
      transform="matrix(1.127591 0 0 1 49.266355 90.195568)" fill="none" stroke="#fff"
      stroke-width="3" />
    <line x1="-12.054119" y1="0" x2="12.054119" y2="0"
      transform="matrix(1.127591 0 0 1 49.266355 91.195568)" fill="none" stroke="#fff"
      stroke-width="3" />
    <line x1="-12.054119" y1="0" x2="12.054119" y2="0"
      transform="matrix(1.127591 0 0 1 49.266355 93.195568)" fill="none" stroke="#fff"
      stroke-width="3" />
    <line x1="-12.054119" y1="0" x2="12.054119" y2="0"
      transform="matrix(1.127591 0 0 1 49.266355 60.195568)" fill="none" stroke="#fff"
      stroke-width="3" />
  </g>
  <rect width="166.26437" height="22.43" rx="0" ry="0"
    transform="matrix(1.357167 0 0 1 41.808934 133.493368)" fill="#fff" stroke-width="0" />
</svg>